# xmcd
#
# Track frame offsets:
#	150
#	31472
#	51187
#	78845
#	106252
#	133342
#	157570
#	168427
#	194642
#	223230
#	243337
#
# Disc length: 3524 seconds
# Revision: 4
# Processed by: cddbd v1.5.2PL0 Copyright (c) Steve Scherf et al.
# Submitted via: dBpowerAMP V12.0
#
DISCID=930dc20b
DTITLE=Joe Louis Walker - 1997 Great Guitars
DYEAR=1997
DGENRE=Blues
TTITLE0=Low Down Dirty Blues (ft. Bonnie Raitt)
TTITLE1=First Degree
TTITLE2=Mile-Hi Club
TTITLE3=Fix Our Love
TTITLE4=Every Girl I See
TTITLE5=Cold and Evil Night
TTITLE6=Hop on It
TTITLE7=Nighttime
TTITLE8=Sugar
TTITLE9=In God's Hands
TTITLE10=High Blood Pressure (ft. Robert Lockwood Jr.)
EXTD=
EXTT0=
EXTT1=
EXTT2=
EXTT3=
EXTT4=
EXTT5=
EXTT6=
EXTT7=
EXTT8=
EXTT9=
EXTT10=
PLAYORDER=
